<svg width="22" height="18" viewBox="0 0 22 18" fill="none" xmlns="http://www.w3.org/2000/svg">
<path d="M20.9669 5.77104C20.675 3.00625 18.4006 1.00033 15.5543 1.00033C13.658 1.00033 11.9218 1.87835 10.9448 3.28557C9.97663 1.86015 8.31153 1 6.44564 1C3.59969 1 1.32493 3.00592 1.03337 5.77071C1.01029 5.89283 0.915673 6.53555 1.20338 7.58368C1.61802 9.09548 2.57578 10.4706 3.97241 11.5594L10.9402 17L18.0275 11.5598C19.4242 10.4706 20.3819 9.09581 20.7965 7.58368C21.0843 6.53588 20.9896 5.89316 20.9669 5.77104ZM20.0477 7.4321C19.6692 8.81284 18.7918 10.0708 17.5129 11.0676L10.9448 16.1097L4.48936 11.069C3.20813 10.0701 2.33115 8.81251 1.95228 7.43177C1.67995 6.4399 1.79188 5.87959 1.79227 5.87595L1.79804 5.84253C2.04805 3.42027 4.00241 1.66191 6.44564 1.66191C8.24844 1.66191 9.83547 2.61506 10.5886 4.14903L10.9428 4.87151L11.2971 4.14903C12.0383 2.63856 13.7092 1.66224 15.5547 1.66224C17.9975 1.66224 19.9523 3.4206 20.2073 5.8743C20.208 5.87959 20.32 6.44023 20.0477 7.4321Z" fill="#1B1A17" stroke="#1B1A17" stroke-width="0.75"/>
</svg>
